<svg width="245" height="89" viewBox="0 0 245 89" fill="none" xmlns="http://www.w3.org/2000/svg">
<path d="M181.664 88.032V31.332C181.664 29.5995 182.281 28.1164 183.515 26.8826C184.748 25.6489 186.232 25.032 187.964 25.032H238.364C240.097 25.032 241.58 25.6489 242.813 26.8826C244.047 28.1164 244.664 29.5995 244.664 31.332V69.132C244.664 70.8645 244.047 72.3476 242.813 73.5814C241.58 74.8151 240.097 75.432 238.364 75.432H194.264L181.664 88.032Z" fill="#C5A15C"/>
<path d="M156.445 76.032V4.992H170.077V76.032H156.445Z" fill="black"/>
<path d="M130.557 76.032V25.248H144.189V76.032H130.557ZM137.277 14.784C134.653 14.784 132.605 14.144 131.133 12.864C129.661 11.584 128.925 9.76 128.925 7.392C128.925 5.216 129.661 3.456 131.133 2.112C132.669 0.704 134.717 0 137.277 0C139.901 0 141.949 0.672001 143.421 2.016C144.893 3.296 145.629 5.088 145.629 7.392C145.629 9.632 144.861 11.424 143.325 12.768C141.853 14.112 139.837 14.784 137.277 14.784Z" fill="black"/>
<path d="M101.831 76.992C97.0945 76.992 92.8705 76.224 89.1585 74.688C85.5105 73.088 82.5665 70.912 80.3265 68.16L88.7745 60.864C90.7585 62.976 92.9665 64.512 95.3985 65.472C97.8305 66.368 100.263 66.816 102.695 66.816C103.655 66.816 104.519 66.72 105.287 66.528C106.119 66.272 106.823 65.952 107.399 65.568C107.975 65.12 108.391 64.608 108.647 64.032C108.967 63.392 109.127 62.72 109.127 62.016C109.127 60.608 108.551 59.488 107.399 58.656C106.759 58.336 105.767 57.952 104.423 57.504C103.079 56.992 101.351 56.448 99.2385 55.872C95.9745 55.04 93.1905 54.08 90.8865 52.992C88.6465 51.84 86.8545 50.56 85.5105 49.152C84.3585 47.808 83.4625 46.368 82.8225 44.832C82.2465 43.232 81.9585 41.472 81.9585 39.552C81.9585 37.248 82.4705 35.168 83.4945 33.312C84.5185 31.392 85.9265 29.76 87.7185 28.416C89.5745 27.072 91.6865 26.048 94.0545 25.344C96.4225 24.576 98.9185 24.192 101.543 24.192C104.167 24.192 106.727 24.512 109.223 25.152C111.719 25.792 114.023 26.72 116.135 27.936C118.311 29.088 120.198 30.464 121.799 32.064L114.503 40.128C113.351 39.04 112.039 38.048 110.567 37.152C109.159 36.256 107.687 35.552 106.151 35.04C104.615 34.528 103.239 34.272 102.023 34.272C100.935 34.272 99.9425 34.368 99.0465 34.56C98.2145 34.752 97.5105 35.04 96.9345 35.424C96.3585 35.808 95.9105 36.32 95.5905 36.96C95.3345 37.536 95.2065 38.176 95.2065 38.88C95.2065 39.584 95.3665 40.256 95.6865 40.896C96.0705 41.536 96.5825 42.08 97.2225 42.528C97.9265 42.912 98.9505 43.36 100.295 43.872C101.703 44.384 103.591 44.96 105.959 45.6C109.031 46.432 111.623 47.36 113.735 48.384C115.911 49.408 117.639 50.592 118.919 51.936C120.007 53.088 120.807 54.4 121.319 55.872C121.831 57.344 122.087 58.976 122.087 60.768C122.087 63.904 121.191 66.72 119.399 69.216C117.671 71.648 115.271 73.568 112.199 74.976C109.127 76.32 105.671 76.992 101.831 76.992Z" fill="black"/>
<path d="M27.4238 76.032V25.248H40.4798L40.8638 35.616L38.1758 36.768C38.8798 34.464 40.1278 32.384 41.9198 30.528C43.7758 28.608 45.9838 27.072 48.5438 25.92C51.1038 24.768 53.7918 24.192 56.6078 24.192C60.4478 24.192 63.6478 24.96 66.2078 26.496C68.8318 28.032 70.7838 30.368 72.0638 33.504C73.4078 36.576 74.0798 40.384 74.0798 44.928V76.032H60.4478V45.984C60.4478 43.68 60.1278 41.76 59.4878 40.224C58.8478 38.688 57.8558 37.568 56.5118 36.864C55.2318 36.096 53.6318 35.776 51.7118 35.904C50.1758 35.904 48.7358 36.16 47.3918 36.672C46.1118 37.12 44.9918 37.792 44.0318 38.688C43.1358 39.584 42.3998 40.608 41.8238 41.76C41.3118 42.912 41.0558 44.16 41.0558 45.504V76.032H34.3358C32.8638 76.032 31.5518 76.032 30.3998 76.032C29.2478 76.032 28.2558 76.032 27.4238 76.032Z" fill="black"/>
<path d="M1.632 76.032V25.248H15.264V76.032H1.632ZM8.352 14.784C5.728 14.784 3.68 14.144 2.208 12.864C0.736001 11.584 0 9.76 0 7.392C0 5.216 0.736001 3.456 2.208 2.112C3.744 0.704 5.792 0 8.352 0C10.976 0 13.024 0.672001 14.496 2.016C15.968 3.296 16.704 5.088 16.704 7.392C16.704 9.632 15.936 11.424 14.4 12.768C12.928 14.112 10.912 14.784 8.352 14.784Z" fill="black"/>
</svg>
